<?xml version="1.0" encoding="UTF-8"?>
<svg id="Layer_1" xmlns="http://www.w3.org/2000/svg" version="1.1" xmlns:xlink="http://www.w3.org/1999/xlink" viewBox="0 0 502.5 492.3">
  <!-- Generator: Adobe Illustrator 30.2.1, SVG Export Plug-In . SVG Version: 2.1.1 Build 1)  -->
  <defs>
    <style>
      .st0, .st1, .st2, .st3, .st4 {
        stroke: #262626;
        stroke-width: 12.5px;
      }

      .st0, .st1, .st4 {
        fill: none;
      }

      .st0, .st4 {
        stroke-linecap: round;
      }

      .st1, .st2, .st4 {
        stroke-miterlimit: 10;
      }

      .st5 {
        fill: url(#linear-gradient1);
      }

      .st6 {
        fill: #262626;
      }

      .st2, .st7 {
        fill: #e0e0e0;
      }

      .st3 {
        fill: url(#linear-gradient);
        stroke-linejoin: round;
      }

      .st8 {
        fill: #f4f4f4;
      }
    </style>
    <linearGradient id="linear-gradient" x1="140.9" y1="134.9" x2="382.6" y2="303" gradientUnits="userSpaceOnUse">
      <stop offset="0" stop-color="#0f62fe"/>
      <stop offset="1" stop-color="#a56eff"/>
    </linearGradient>
    <linearGradient id="linear-gradient1" x1="251.6" y1="77" x2="251.6" y2="163.6" gradientUnits="userSpaceOnUse">
      <stop offset="0" stop-color="#0f62fe"/>
      <stop offset=".1" stop-color="#135fec" stop-opacity=".8"/>
      <stop offset=".4" stop-color="#1b5acf" stop-opacity=".5"/>
      <stop offset=".6" stop-color="#2156b7" stop-opacity=".3"/>
      <stop offset=".8" stop-color="#2554a7" stop-opacity=".1"/>
      <stop offset=".9" stop-color="#28529c" stop-opacity="0"/>
      <stop offset="1" stop-color="#295299" stop-opacity="0"/>
    </linearGradient>
  </defs>
  <g>
    <rect class="st2" x="398.4" y="294.4" width="61.9" height="84.4" rx="14.1" ry="14.1"/>
    <rect class="st2" x="38.4" y="294.4" width="61.9" height="84.4" rx="14.1" ry="14.1"/>
  </g>
  <rect class="st8" x="72.1" y="227.1" width="354.4" height="219.4" rx="67.5" ry="67.5"/>
  <path class="st7" d="M100.3,379v-84.4c0-37.3,30.2-67.5,67.5-67.5h-28.1c-37.3,0-67.5,30.2-67.5,67.5v84.4c0,37.3,30.2,67.5,67.5,67.5h28.1c-37.3,0-67.5-30.2-67.5-67.5Z"/>
  <path class="st7" d="M398.4,294.6v84.4c0,37.3-30.2,67.5-67.5,67.5h28.1c37.3,0,67.5-30.2,67.5-67.5v-84.4c0-37.3-30.2-67.5-67.5-67.5h-28.1c37.3,0,67.5,30.2,67.5,67.5Z"/>
  <rect class="st1" x="72.1" y="227.1" width="354.4" height="219.4" rx="67.5" ry="67.5"/>
  <g>
    <path class="st0" d="M207.6,395.9c33.8,14.1,50.6,15.5,84.4,0"/>
    <path class="st6" d="M327.2,295c20.8,0,37.6,17.5,37.6,39s-16.9,39-37.6,39-37.6-17.5-37.6-39,16.9-39,37.6-39Z"/>
    <circle class="st8" cx="335.6" cy="327" r="9.8"/>
    <path class="st6" d="M169.7,295c20.8,0,37.6,17.5,37.6,39s-16.9,39-37.6,39-37.6-17.5-37.6-39,16.9-39,37.6-39Z"/>
    <circle class="st8" cx="178.1" cy="327" r="9.8"/>
  </g>
  <g>
    <path class="st3" d="M446.5,269.3c6.8,0,13-3.9,15.9-10h0c4.8-10.1-.9-22-11.8-24.6l-17.6-6.2c0-95.1-81.2-172.2-181.4-172.2S70.2,133.3,70.2,228.4l-17.6,6.2c-10.9,2.6-16.6,14.5-11.8,24.6h0c2.9,6.1,9.1,10,15.9,10h389.8Z"/>
    <path class="st0" d="M113.8,220.2c108.3-13.7,168.7-14.3,275.7,0"/>
    <path class="st5" d="M200.9,166.7V59.8c0-7.8,6.3-14.1,14.1-14.1h73.1c7.8,0,14.1,6.3,14.1,14.1v106.9h-101.3Z"/>
    <path class="st4" d="M200.9,166.7V59.8c0-7.8,6.3-14.1,14.1-14.1h73.1c7.8,0,14.1,6.3,14.1,14.1v106.9"/>
  </g>
</svg>